<svg xmlns="http://www.w3.org/2000/svg" width="45" height="45" preserveAspectRatio="xMidYMid meet" style=""><rect id="backgroundrect" width="100%" height="100%" x="0" y="0" fill="none" stroke="none"/>
 <metadata>Created by Potrace Professional 1.0c</metadata>

 <g style="">
  <title>background</title>
  <rect fill="none" id="canvas_background" height="402" width="582" y="-1" x="-1"/>
 </g>
 <g style="" class="currentLayer">
  <title>Layer 1</title>
  <g id="svg_1" fill="#000000" transform="rotate(-90 28.530941009521488,24.25996208190918) translate(0,45) scale(0.10000000149011612,-0.10000000149011612) " class="">
   <path stroke="null" id="svg_7" d="m400.6691722869873,315.45052636621097 c-13,-8.810431 -32,-12.726178 -46,-9.789368 c-68,16.641925 -177,-49.925776 -177,-107.683047 c0,-17.620862 7,-37.199598 15,-44.052156 c26,-21.536609 16,-29.368104 -35,-29.368104 c-39,0 -52,-3.915747 -60,-19.578736 c-10,-18.599799 -8,-19.578736 105,-19.578736 l116,0 l-37,45.031092 c-33,39.157472 -36,46.010029 -22,58.736207 c8,7.831494 27,15.662989 42,16.641925 c24,1.9578740000000003 30,-3.915747 46,-45.031092 c25,-62.651955 37,-75.378133 73,-75.378133 c28,0 29,0.978937 14,17.620862 c-19,19.578736 -56,98.872616 -57,118.451352 c0,7.831494 6,10.768305 16,6.852558 c40,-14.684052 97,46.010029 80,87.125374 c-7,18.599799 -45,18.599799 -73,0 z" fill="white"/>
  </g>
 </g>
</svg>