<?xml version="1.0" standalone="no"?>
<!DOCTYPE svg PUBLIC "-//W3C//DTD SVG 20010904//EN"
 "http://www.w3.org/TR/2001/REC-SVG-20010904/DTD/svg10.dtd">
<svg version="1.0" xmlns="http://www.w3.org/2000/svg"
 width="45pt" height="45pt" viewBox="0 0 45 45"
 preserveAspectRatio="xMidYMid meet">
<metadata>
Created by Potrace Professional 1.0c
</metadata>
<g transform="translate(0,45) scale(0.100000,-0.100000)"
fill="#ffffff" stroke="none">
<path d="M126 423 c-34 -18 -44 -54 -50 -183 l-5 -115 43 -49 c42 -48 43 -49
102 -50 l60 -1 42 51 42 51 -7 129 c-6 123 -7 130 -33 153 -23 21 -36 25 -99
25 -39 1 -82 -4 -95 -11z m44 -98 l23 -25 -41 0 c-34 0 -42 3 -42 18 0 39 27
42 60 7z m150 0 c0 -22 -4 -25 -35 -25 -32 0 -35 2 -25 19 19 37 60 41 60 6z
m-159 -145 c5 0 11 11 15 25 8 31 18 32 32 3 l11 -23 7 23 c8 29 22 28 30 -3
8 -34 20 -31 33 8 9 25 14 29 21 17 5 -8 10 -10 11 -5 2 18 17 -39 18 -69 1
-28 0 -29 -13 -10 -14 18 -15 16 -22 -23 -7 -44 -17 -55 -28 -28 -10 27 -26
16 -26 -17 l0 -33 -19 24 -19 24 -6 -21 c-10 -32 -26 -27 -26 8 0 32 -14 40
-24 15 -10 -27 -26 -16 -26 18 0 42 -9 52 -26 29 -11 -14 -13 -14 -14 -2 0 34
13 89 21 85 4 -3 11 0 15 7 6 9 11 2 18 -20 5 -17 13 -32 17 -32z"/>
</g>
</svg>
