<?xml version="1.0" standalone="no"?>
<!DOCTYPE svg PUBLIC "-//W3C//DTD SVG 20010904//EN"
 "http://www.w3.org/TR/2001/REC-SVG-20010904/DTD/svg10.dtd">
<svg version="1.0" xmlns="http://www.w3.org/2000/svg"
 width="45pt" height="45pt" viewBox="0 0 45 45"
 preserveAspectRatio="xMidYMid meet">
<metadata>
Created by Potrace Professional 1.0c
</metadata>
<g transform="translate(0,45) scale(0.100000,-0.100000)"
 stroke="none">
<path d="M236 423 l-39 -26 -18 21 c-15 19 -19 20 -29 7 -32 -38 19 -59 70
-29 54 33 81 -6 35 -51 -30 -31 -88 -35 -83 -7 4 25 -37 27 -61 3 -29 -29 -27
-65 5 -90 35 -27 83 -27 124 2 40 26 48 44 23 49 -16 3 -16 4 -2 10 24 9 59
-19 59 -46 0 -31 -36 -75 -74 -92 l-31 -13 48 -1 c108 0 201 93 167 168 l-12
27 -14 -27 c-8 -15 -22 -32 -32 -37 -15 -8 -17 -3 -17 56 0 56 -3 67 -24 84
-31 25 -49 24 -95 -8z"/>
<path d="M56 229 c-3 -18 -18 -47 -32 -66 -21 -28 -25 -42 -22 -90 l3 -58 67
-3 c43 -2 79 2 103 12 40 17 39 40 -2 30 -18 -5 -24 -3 -19 5 4 6 13 11 21 11
17 0 28 17 20 30 -4 6 -15 6 -30 0 -16 -6 -25 -6 -25 0 0 5 11 12 25 16 14 3
25 13 25 21 0 12 -8 14 -35 9 -51 -10 -43 -2 23 24 65 26 77 34 68 48 -4 6
-39 -3 -91 -24 -98 -39 -104 -41 -81 -15 19 21 19 72 0 78 -6 2 -14 -11 -18
-28z"/>
</g>
</svg>
